# Blender v2.81 (sub 16) OBJ File: 'ghostblock.blend'
# www.blender.org
mtllib grassblock.mtl
o Cube
v 0.965778 0.963333 -0.810000
v 0.965778 0.963333 0.810000
v 0.873333 1.000000 -0.900000
v 0.873333 1.000000 0.900000
v 0.998778 0.873333 -0.900000
v 0.998778 0.873333 0.900000
v 0.900000 0.900000 1.000000
v 0.900000 0.900000 -1.000000
v 0.965778 0.963333 0.000000
v 0.873333 1.000000 0.000000
v 0.998778 0.873333 0.000000
v -0.965778 0.963333 -0.810000
v -0.965778 0.963333 0.810000
v 0.000000 1.000000 0.900000
v 0.000000 1.000000 -0.900000
v -0.873333 1.000000 -0.900000
v -0.873333 1.000000 0.900000
v -0.998778 0.873333 -0.900000
v -0.998778 0.873333 0.900000
v 0.000000 0.900000 -1.000000
v 0.000000 0.900000 1.000000
v -0.900000 0.900000 1.000000
v -0.900000 0.900000 -1.000000
v -0.965778 0.963333 0.000000
v 0.000000 1.000000 0.000000
v -0.873333 1.000000 0.000000
v -0.998778 0.873333 0.000000
v 0.965778 -0.963333 -0.810000
v 0.965778 -0.963333 0.810000
v 0.998778 0.000000 -0.900000
v 0.998778 0.000000 0.900000
v 0.873333 -1.000000 -0.900000
v 0.873333 -1.000000 0.900000
v 0.900000 0.000000 1.000000
v 0.900000 0.000000 -1.000000
v 0.998778 -0.873333 -0.900000
v 0.998778 -0.873333 0.900000
v 0.900000 -0.900000 1.000000
v 0.900000 -0.900000 -1.000000
v 0.965778 -0.963333 0.000000
v 0.998778 0.000000 0.000000
v 0.873333 -1.000000 0.000000
v 0.900000 0.000000 0.000000
v 0.998778 -0.873333 0.000000
v -0.965778 -0.963333 -0.810000
v -0.965778 -0.963333 0.810000
v 0.000000 -1.000000 0.900000
v 0.000000 -1.000000 -0.900000
v -0.998778 0.000000 -0.900000
v -0.998778 0.000000 0.900000
v 0.000000 0.000000 -1.000000
v 0.000000 0.000000 1.000000
v -0.873333 -1.000000 -0.900000
v -0.873333 -1.000000 0.900000
v -0.900000 0.000000 1.000000
v -0.900000 0.000000 -1.000000
v -0.998778 -0.873333 -0.900000
v -0.998778 -0.873333 0.900000
v 0.000000 -0.900000 -1.000000
v 0.000000 -0.900000 1.000000
v -0.900000 -0.900000 1.000000
v -0.900000 -0.900000 -1.000000
v -0.965778 -0.963333 0.000000
v 0.000000 0.000000 0.000000
v 0.000000 -1.000000 0.000000
v -0.998778 0.000000 0.000000
v -0.873333 -1.000000 0.000000
v -0.900000 0.000000 0.000000
v -0.998778 -0.873333 0.000000
vt 0.312477 0.436568
vt 0.327489 0.431619
vt 0.327489 0.554593
vt 0.312477 0.573205
vt 0.316925 0.269935
vt 0.333605 0.281118
vt 0.327489 0.308645
vt 0.312477 0.299930
vt 0.350082 0.021340
vt 0.354530 0.000000
vt 0.500204 0.000000
vt 0.500204 0.021340
vt 0.312273 0.786603
vt 0.166599 0.786603
vt 0.166599 0.594545
vt 0.312273 0.594545
vt 0.327693 0.786603
vt 0.327693 0.613751
vt 0.333197 0.594545
vt 0.316721 0.573205
vt 0.166599 1.000000
vt 0.166599 0.978660
vt 0.312273 0.978660
vt 0.316721 1.000000
vt 0.166803 0.134968
vt 0.316925 0.134968
vt 0.166803 0.269935
vt 0.333605 0.213397
vt 0.333605 0.027030
vt 0.350082 0.213397
vt 0.500204 0.213397
vt 0.166803 0.299930
vt 0.166803 0.436568
vt 0.166803 0.573205
vt 0.327693 0.959454
vt 0.797051 0.826559
vt 0.903855 0.826559
vt 0.889306 0.845764
vt 0.793183 0.845765
vt 0.666803 0.832249
vt 0.690248 0.826559
vt 0.697060 0.845765
vt 0.675544 0.853589
vt 0.650326 0.021340
vt 0.645878 0.000000
vt 0.020924 0.786603
vt 0.020924 0.594545
vt 0.005505 0.786603
vt 0.005504 0.613751
vt 0.000000 0.594545
vt 0.016476 0.573206
vt 0.016476 1.000000
vt 0.020925 0.978660
vt 0.166803 0.000000
vt 0.316925 0.000000
vt 0.666803 0.213397
vt 0.650326 0.213397
vt 0.666803 0.027030
vt 0.666803 0.640192
vt 0.690248 0.640192
vt 0.797051 0.640192
vt 0.903855 0.640192
vt 0.005505 0.959455
vt 0.650326 0.640192
vt 0.500204 0.640192
vt 0.500204 0.426795
vt 0.650326 0.426795
vt 0.021128 0.436568
vt 0.021128 0.573205
vt 0.006116 0.554593
vt 0.006116 0.431619
vt 0.016680 0.269935
vt 0.021128 0.299930
vt 0.006116 0.308645
vt 0.000000 0.281118
vt 0.350082 0.405455
vt 0.500204 0.405455
vt 0.500204 0.426795
vt 0.354530 0.426795
vt 0.687727 0.213397
vt 0.687727 0.021340
vt 0.833401 0.021340
vt 0.833401 0.213397
vt 0.672307 0.213397
vt 0.672307 0.040546
vt 0.666803 0.021340
vt 0.683279 0.000000
vt 0.833401 0.426794
vt 0.683279 0.426794
vt 0.687727 0.405455
vt 0.833401 0.405455
vt 0.666803 0.640192
vt 0.666802 0.448134
vt 0.016680 0.134968
vt 0.333605 0.399764
vt 0.666803 0.832249
vt 0.650326 0.853589
vt 0.672307 0.386249
vt 0.500204 0.853589
vt 0.350082 0.640192
vt 0.350081 0.426795
vt 0.797051 0.453825
vt 0.793183 0.434619
vt 0.889306 0.434619
vt 0.903855 0.453825
vt 0.666803 0.448134
vt 0.675544 0.426795
vt 0.697060 0.434619
vt 0.690248 0.453825
vt 0.650326 0.405455
vt 0.645878 0.426794
vt 0.979076 0.213397
vt 0.979076 0.021340
vt 0.994496 0.213397
vt 0.994496 0.040545
vt 1.000000 0.021340
vt 0.983524 0.000000
vt 0.979076 0.405455
vt 0.983524 0.426794
vt 0.333605 0.640192
vt 0.333605 0.448134
vt 0.016680 0.000000
vt 0.666803 0.399764
vt 0.333605 0.832249
vt 0.350082 0.853589
vt 0.994496 0.386249
vn 0.9389 0.3443 0.0000
vn 0.6404 0.6342 -0.4331
vn 0.0000 0.7071 0.7071
vn 0.0000 1.0000 0.0000
vn 0.3687 0.9296 0.0000
vn 0.6404 0.6342 0.4331
vn 0.0000 0.7071 -0.7071
vn 0.0000 0.0000 -1.0000
vn 0.7114 0.0000 0.7027
vn 0.0000 0.0000 1.0000
vn 0.7114 0.0000 -0.7027
vn 1.0000 0.0000 0.0000
vn -0.9389 0.3443 0.0000
vn -0.6404 0.6342 -0.4331
vn -0.3687 0.9296 0.0000
vn -0.6404 0.6342 0.4331
vn -0.7114 0.0000 0.7027
vn -0.7114 0.0000 -0.7027
vn -1.0000 0.0000 0.0000
vn 0.9389 -0.3443 0.0000
vn 0.6404 -0.6342 -0.4331
vn 0.0000 -0.7071 0.7071
vn 0.0000 -1.0000 0.0000
vn 0.3687 -0.9296 0.0000
vn 0.6404 -0.6342 0.4331
vn 0.0000 -0.7071 -0.7071
vn -0.9389 -0.3443 0.0000
vn -0.6404 -0.6342 -0.4331
vn -0.3687 -0.9296 0.0000
vn -0.6404 -0.6342 0.4331
usemtl Material
s off
f 11/1/1 9/2/1 2/3/1 6/4/1
f 8/5/2 3/6/2 1/7/2 5/8/2
f 7/9/3 4/10/3 14/11/3 21/12/3
f 10/13/4 25/14/4 14/15/4 4/16/4
f 9/17/5 10/13/5 4/16/5 2/18/5
f 6/19/6 2/18/6 4/16/6 7/20/6
f 20/21/7 15/22/7 3/23/7 8/24/7
f 51/25/8 20/26/8 8/5/8 35/27/8
f 31/28/9 6/29/9 7/9/9 34/30/9
f 34/30/10 7/9/10 21/12/10 52/31/10
f 35/27/11 8/5/11 5/8/11 30/32/11
f 41/33/12 11/1/12 6/4/12 31/34/12
f 30/32/12 5/8/12 11/1/12 41/33/12
f 1/35/5 3/23/5 10/13/5 9/17/5
f 3/23/4 15/22/4 25/14/4 10/13/4
f 5/8/1 1/7/1 9/2/1 11/1/1
f 27/36/13 19/37/13 13/38/13 24/39/13
f 23/40/14 18/41/14 12/42/14 16/43/14
f 22/44/3 21/12/3 14/11/3 17/45/3
f 26/46/4 17/47/4 14/15/4 25/14/4
f 24/48/15 13/49/15 17/47/15 26/46/15
f 19/50/16 22/51/16 17/47/16 13/49/16
f 20/21/7 23/52/7 16/53/7 15/22/7
f 51/25/8 56/54/8 23/55/8 20/26/8
f 50/56/17 55/57/17 22/44/17 19/58/17
f 55/57/10 52/31/10 21/12/10 22/44/10
f 56/59/18 49/60/18 18/41/18 23/40/18
f 66/61/19 50/62/19 19/37/19 27/36/19
f 49/60/19 66/61/19 27/36/19 18/41/19
f 12/63/15 24/48/15 26/46/15 16/53/15
f 16/53/4 26/46/4 25/14/4 15/22/4
f 18/41/13 27/36/13 24/39/13 12/42/13
f 43/64/4 64/65/4 52/66/4 34/67/4
f 44/68/20 37/69/20 29/70/20 40/71/20
f 39/72/21 36/73/21 28/74/21 32/75/21
f 38/76/22 60/77/22 47/78/22 33/79/22
f 42/80/23 33/81/23 47/82/23 65/83/23
f 40/84/24 29/85/24 33/81/24 42/80/24
f 37/86/25 38/87/25 33/81/25 29/85/25
f 59/88/26 39/89/26 32/90/26 48/91/26
f 41/92/4 43/64/4 34/67/4 31/93/4
f 51/25/8 35/27/8 39/72/8 59/94/8
f 31/28/9 34/30/9 38/76/9 37/95/9
f 34/30/10 52/31/10 60/77/10 38/76/10
f 35/27/11 30/32/11 36/73/11 39/72/11
f 41/33/12 31/34/12 37/69/12 44/68/12
f 30/32/12 41/33/12 44/68/12 36/73/12
f 30/96/4 35/97/4 43/64/4 41/92/4
f 28/98/24 40/84/24 42/80/24 32/90/24
f 32/90/23 42/80/23 65/83/23 48/91/23
f 36/73/20 44/68/20 40/71/20 28/74/20
f 35/97/4 51/99/4 64/65/4 43/64/4
f 68/100/4 55/101/4 52/66/4 64/65/4
f 69/102/27 63/103/27 46/104/27 58/105/27
f 62/106/28 53/107/28 45/108/28 57/109/28
f 61/110/22 54/111/22 47/78/22 60/77/22
f 67/112/23 65/83/23 47/82/23 54/113/23
f 63/114/29 67/112/29 54/113/29 46/115/29
f 58/116/30 46/115/30 54/113/30 61/117/30
f 59/88/26 48/91/26 53/118/26 62/119/26
f 66/120/4 50/121/4 55/101/4 68/100/4
f 51/25/8 59/94/8 62/122/8 56/54/8
f 50/56/17 58/123/17 61/110/17 55/57/17
f 55/57/10 61/110/10 60/77/10 52/31/10
f 56/59/18 62/106/18 57/109/18 49/60/18
f 66/61/19 69/102/19 58/105/19 50/62/19
f 49/60/19 57/109/19 69/102/19 66/61/19
f 49/124/4 66/120/4 68/100/4 56/125/4
f 45/126/29 53/118/29 67/112/29 63/114/29
f 53/118/23 48/91/23 65/83/23 67/112/23
f 57/109/27 45/108/27 63/103/27 69/102/27
f 56/125/4 68/100/4 64/65/4 51/99/4
